<svg xmlns="http://www.w3.org/2000/svg" width="720" height="360" viewBox="0 0 720 360">
  <rect width="720" height="360" rx="24" fill="#F5F7FB"/><text x="36" y="48" font-family="-apple-system, sans-serif" font-size="24" font-weight="700" fill="#172033">Четыре базовых типа фильтров</text>
  <g font-family="-apple-system, sans-serif" font-size="17" fill="#172033"><text x="75" y="95">ФНЧ</text><text x="255" y="95">ФВЧ</text><text x="435" y="95">Полосовой</text><text x="605" y="95">Режекторный</text></g>
  <g fill="none" stroke="#5B6CFF" stroke-width="6">
    <path d="M45 210 h70 q25 0 30 -50 l15 -70"/><path d="M225 90 l15 70 q5 50 30 50 h70"/>
    <path d="M395 210 q25 0 35 -80 q10 -55 25 0 q10 80 35 80"/><path d="M565 90 q25 0 35 80 q10 55 25 0 q10 -80 35 -80"/>
  </g>
  <g stroke="#AAB2C3" stroke-width="2"><path d="M40 230 h130 M40 230 v-150"/><path d="M220 230 h130 M220 230 v-150"/><path d="M390 230 h130 M390 230 v-150"/><path d="M560 230 h130 M560 230 v-150"/></g>
  <text x="36" y="334" font-family="-apple-system, sans-serif" font-size="17" fill="#4C5870">По горизонтали — частота, по вертикали — насколько сигнал проходит.</text>
</svg>
